<svg width="20" height="18" viewBox="0 0 20 18" fill="none" xmlns="http://www.w3.org/2000/svg">
<path d="M18.2313 7.526C17.6463 4.405 17.3533 2.844 16.2423 1.922C15.1323 1 13.5443 1 10.3693 1H9.64828C6.47228 1 4.88528 1 3.77428 1.922C2.66328 2.844 2.37028 4.405 1.78428 7.526C0.962281 11.915 0.55028 14.109 1.75028 15.555C2.94928 17 5.18128 17 9.64728 17H10.3683C14.8333 17 17.0663 17 18.2663 15.555C18.9623 14.715 19.1163 13.625 18.9613 12" stroke="#004A77" stroke-width="1.5" stroke-linecap="round"/>
<path d="M7.16931 5C7.37591 5.58553 7.75905 6.09257 8.26591 6.45121C8.77277 6.80986 9.3784 7.00245 9.99931 7.00245C10.6202 7.00245 11.2259 6.80986 11.7327 6.45121C12.2396 6.09257 12.6227 5.58553 12.8293 5" stroke="#004A77" stroke-width="1.5" stroke-linecap="round"/>
</svg>
